<?xml version="1.0" encoding="UTF-8"?>
<svg id="_图层_1" data-name="图层_1" xmlns="http://www.w3.org/2000/svg" version="1.1" viewBox="0 0 256 256">
  <!-- Generator: Adobe Illustrator 29.6.1, SVG Export Plug-In . SVG Version: 2.1.1 Build 9)  -->
  <g id="color">
    <path d="M221.12,39.8s-15.68,29.3-39.51,39.51c-18.71,8.03-42.48,4.24-51.82,2.3-9.37,1.76-33.22,5.06-51.76-3.35-23.62-10.69-38.7-40.3-38.7-40.3,0,0,32.15-8.18,55.77,2.51,5.08,2.29,9.72,5.41,13.94,8.95,15.95,13.42,20.28,15,42.14.43,4.29-3.45,9-6.48,14.12-8.66,23.83-10.21,55.81-1.37,55.81-1.37Z" fill="#b1cc33" stroke="#b1cc33" stroke-linejoin="round" stroke-width="14.22"/>
    <path d="M230,144.94c-1.31,53.48-48.21,95.45-101.18,101.98-.21.04-.42.04-.63.08h-.46c-.88,0-1.73-.04-2.65-.08-47.79-10.79-93.89-52.8-98.69-101.98,0-7.42.8-14.71,2.32-21.7,2.7-12.6,7.8-24.36,14.71-34.77,11.13-12.18,27.6-19.85,46.02-19.85,9.57,0,18.54,2.02,26.59,5.69,5.44,2.49,11.5,3.12,17.24,1.85,1.9-.38,3.79-1.01,5.6-1.85,8.01-3.67,17.02-5.69,26.55-5.69,20.56,0,38.77,9.57,49.73,24.27,1.22,1.56,2.28,3.16,3.29,4.8,2.07,3.92,3.83,7.96,5.39,12.14.04.08.08.13.08.21.51,1.35.97,2.74,1.39,4.13.38,1.22.76,2.44,1.1,3.67.29,1.1.59,2.15.84,3.24,1.56,6.57,2.49,13.4,2.74,20.35.04,1.18.04,2.32.04,3.5Z" fill="#ffa7c0" stroke="#ffa7c0" stroke-linecap="round" stroke-linejoin="round" stroke-width="14.22"/>
    <path d="M133.25,76.16c4.42-.84,8.64-1.52,12.6-1.94-7.25,1.26-13.86,2.4-15.3,2.53.93-.21,1.81-.42,2.7-.59Z" fill="#e67a94" stroke="#e67a94" stroke-linejoin="round" stroke-width="14.22"/>
    <path d="M230,144.94c-1.31,53.48-48.21,95.45-101.18,101.98,85.18-19.89,132.38-185.1,17.02-172.69,9.1-1.56,19.26-3.24,21.45-3.24,19.43,0,36.75,8.55,47.83,21.91,1.22,1.56,2.28,3.16,3.29,4.8,2.07,3.92,3.83,7.96,5.39,12.14.04.08.08.13.08.21.51,1.35.97,2.74,1.39,4.13.38,1.22.76,2.44,1.1,3.67.29,1.1.59,2.15.84,3.24,1.64,6.57,2.61,13.36,2.74,20.35.04,1.18.04,2.32.04,3.5Z" fill="#e67a94" stroke="#e67a94" stroke-linejoin="round" stroke-width="14.22"/>
    <path d="M133.07,131.51c-3.03-14.51-14.36-23.31-14.36-23.31" fill="none" stroke="#e67a94" stroke-linecap="round" stroke-linejoin="round" stroke-width="14.22"/>
  </g>
  <g id="line">
    <path d="M150.95,50.31c4.24-3.49,8.92-6.59,13.99-8.82,23.74-10.45,55.83-1.9,55.83-1.9" fill="none" stroke="#000" stroke-linecap="round" stroke-linejoin="round" stroke-width="14.22"/>
    <path d="M220.77,39.59s-4.63,8.87-12.74,18.6" fill="none" stroke="#000" stroke-linecap="round" stroke-linejoin="round" stroke-width="14.22"/>
    <path d="M107.46,48.23c-4.24-3.49-8.92-6.59-13.99-8.82-23.74-10.45-55.83-1.9-55.83-1.9" fill="none" stroke="#000" stroke-linecap="round" stroke-linejoin="round" stroke-width="14.22"/>
    <path d="M37.64,37.5s4.32,8.26,11.91,17.59" fill="none" stroke="#000" stroke-linecap="round" stroke-linejoin="round" stroke-width="14.22"/>
    <path d="M127.7,42.06c-1.35-9.82-4.86-23.77-13.94-33.31" fill="none" stroke="#000" stroke-linecap="round" stroke-linejoin="round" stroke-width="14.22"/>
    <path d="M230,144.94c-1.31,53.48-48.21,95.45-101.18,101.98-.21.04-.42.04-.63.08h-.46c-.88,0-1.77.13-2.65-.08-47.79-10.79-93.89-52.8-98.69-101.98-.72-7.37.8-14.71,2.32-21.7,2.7-12.6,7.8-24.36,14.71-34.77,11.13-12.18,27.6-19.85,46.02-19.85,9.57,0,18.54,2.02,26.59,5.69,5.44,2.49,11.5,3.12,17.24,1.85,1.9-.38,3.79-1.01,5.6-1.85,8.01-3.67,17.02-5.69,26.55-5.69,20.56,0,38.77,9.57,49.73,24.27,1.22,1.56,2.28,3.16,3.29,4.8,2.07,3.92,3.83,7.96,5.39,12.14.04.08.08.13.08.21.51,1.35.97,2.74,1.39,4.13.38,1.22.76,2.44,1.1,3.67.29,1.1.59,2.15.84,3.24,1.64,6.57,2.61,13.36,2.74,20.35.04,1.18.04,2.32.04,3.5Z" fill="none" stroke="#000" stroke-linecap="round" stroke-linejoin="round" stroke-width="14.22"/>
    <path d="M146.85,200.07c8.6-30.2,13.67-74.23-15.75-103.72" fill="none" stroke="#000" stroke-linecap="round" stroke-linejoin="round" stroke-width="14.22"/>
  </g>
</svg>